<svg xmlns="http://www.w3.org/2000/svg" width="1280" height="820" viewBox="0 0 1280 820">
  <defs>
    <linearGradient id="page" x1="0" x2="1" y1="0" y2="1">
      <stop offset="0" stop-color="#f5f8fb"/>
      <stop offset="1" stop-color="#eef6f3"/>
    </linearGradient>
    <filter id="softShadow" x="-20%" y="-20%" width="140%" height="140%">
      <feDropShadow dx="0" dy="14" stdDeviation="18" flood-color="#101828" flood-opacity=".11"/>
    </filter>
  </defs>

  <rect width="1280" height="820" fill="url(#page)"/>

  <rect x="28" y="24" width="1224" height="72" rx="18" fill="#fff" stroke="#dde6ef"/>
  <circle cx="70" cy="60" r="22" fill="#0f766e"/>
  <text x="70" y="68" text-anchor="middle" font-family="Arial, sans-serif" font-size="23" font-weight="800" fill="#fff">G</text>
  <text x="106" y="56" font-family="Arial, sans-serif" font-size="18" font-weight="800" fill="#102027">GustavoPlantão</text>
  <text x="106" y="78" font-family="Arial, sans-serif" font-size="12" fill="#667085">Protocolos, receitas e textos clínicos</text>
  <rect x="1100" y="43" width="116" height="34" rx="17" fill="#eef7f5" stroke="#c8e4dc"/>
  <text x="1158" y="65" text-anchor="middle" font-family="Arial, sans-serif" font-size="12" font-weight="800" fill="#0f766e">App portátil</text>

  <!-- Primeira aba lateral: Ações rápidas -->
  <g filter="url(#softShadow)">
    <rect x="28" y="120" width="250" height="664" rx="18" fill="#fff" stroke="#dfe7f0"/>
  </g>
  <rect x="28" y="120" width="8" height="664" rx="4" fill="#0f766e"/>
  <text x="54" y="154" font-family="Arial, sans-serif" font-size="12" font-weight="900" fill="#0f766e">AÇÕES RÁPIDAS</text>
  <rect x="50" y="174" width="204" height="38" rx="12" fill="#f7f9fc" stroke="#d7e0ea"/>
  <text x="66" y="198" font-family="Arial, sans-serif" font-size="12" fill="#8a97a8">Buscar ações</text>

  <g font-family="Arial, sans-serif">
    <rect x="50" y="234" width="204" height="58" rx="13" fill="#e8f5f2" stroke="#b8ded5"/>
    <text x="68" y="257" font-size="14" font-weight="800" fill="#102027">Anamnese</text>
    <text x="68" y="276" font-size="11" fill="#667085">Estrutura clínica</text>
    <circle cx="238" cy="263" r="5" fill="#0f766e"/>

    <rect x="50" y="304" width="204" height="58" rx="13" fill="#fff" stroke="#e1e8f0"/>
    <text x="68" y="327" font-size="14" font-weight="800" fill="#102027">Reavaliação</text>
    <text x="68" y="346" font-size="11" fill="#667085">Alta e exames</text>

    <rect x="50" y="374" width="204" height="58" rx="13" fill="#fff" stroke="#e1e8f0"/>
    <text x="68" y="397" font-size="14" font-weight="800" fill="#102027">Receita livre</text>
    <text x="68" y="416" font-size="11" fill="#667085">Texto em branco</text>

    <rect x="50" y="444" width="204" height="58" rx="13" fill="#fff" stroke="#e1e8f0"/>
    <text x="68" y="467" font-size="14" font-weight="800" fill="#102027">Encaminhamento</text>
    <text x="68" y="486" font-size="11" fill="#667085">Especialidades</text>
  </g>

  <!-- Segunda aba lateral: Receitas -->
  <g filter="url(#softShadow)">
    <rect x="296" y="120" width="250" height="664" rx="18" fill="#fff" stroke="#dfe7f0"/>
  </g>
  <rect x="296" y="120" width="8" height="664" rx="4" fill="#667085"/>
  <text x="322" y="154" font-family="Arial, sans-serif" font-size="12" font-weight="900" fill="#475467">RECEITAS</text>
  <rect x="318" y="174" width="204" height="38" rx="12" fill="#f7f9fc" stroke="#d7e0ea"/>
  <text x="334" y="198" font-family="Arial, sans-serif" font-size="12" fill="#8a97a8">Buscar receitas</text>

  <g font-family="Arial, sans-serif">
    <rect x="318" y="234" width="204" height="52" rx="13" fill="#fff" stroke="#e1e8f0"/>
    <text x="336" y="256" font-size="13" font-weight="800" fill="#102027">Dor Aguda</text>
    <text x="336" y="274" font-size="10.5" fill="#667085">Ortopedia</text>

    <rect x="318" y="296" width="204" height="52" rx="13" fill="#fff" stroke="#e1e8f0"/>
    <text x="336" y="318" font-size="13" font-weight="800" fill="#102027">Gastroenterite</text>
    <text x="336" y="336" font-size="10.5" fill="#667085">Gastrointestinal</text>

    <rect x="318" y="358" width="204" height="52" rx="13" fill="#fff" stroke="#e1e8f0"/>
    <text x="336" y="380" font-size="13" font-weight="800" fill="#102027">ITU</text>
    <text x="336" y="398" font-size="10.5" fill="#667085">Infecção urinária</text>

    <rect x="318" y="420" width="204" height="52" rx="13" fill="#fff" stroke="#e1e8f0"/>
    <text x="336" y="442" font-size="13" font-weight="800" fill="#102027">Enxaqueca</text>
    <text x="336" y="460" font-size="10.5" fill="#667085">Neurologia</text>

    <rect x="318" y="482" width="204" height="52" rx="13" fill="#fff" stroke="#e1e8f0"/>
    <text x="336" y="504" font-size="13" font-weight="800" fill="#102027">Antibióticos</text>
    <text x="336" y="522" font-size="10.5" fill="#667085">Lista rápida</text>

    <rect x="318" y="544" width="204" height="52" rx="13" fill="#fff" stroke="#e1e8f0"/>
    <text x="336" y="566" font-size="13" font-weight="800" fill="#102027">Conjuntivite</text>
    <text x="336" y="584" font-size="10.5" fill="#667085">Oftalmologia</text>
  </g>

  <rect x="318" y="708" width="204" height="42" rx="12" fill="#fbfcfe" stroke="#e1e8f0"/>
  <text x="420" y="734" text-anchor="middle" font-family="Arial, sans-serif" font-size="11" font-weight="800" fill="#667085">Rolagem só das receitas</text>

  <!-- Conteúdo principal deslocado para a direita das duas laterais -->
  <g filter="url(#softShadow)">
    <rect x="574" y="120" width="678" height="664" rx="18" fill="#fff" stroke="#dfe7f0"/>
  </g>
  <rect x="574" y="120" width="678" height="82" rx="18" fill="#fff"/>
  <line x1="574" y1="202" x2="1252" y2="202" stroke="#eef2f6"/>
  <text x="604" y="156" font-family="Arial, sans-serif" font-size="12" font-weight="800" fill="#667085">Estrutura Clínica</text>
  <text x="604" y="184" font-family="Arial, sans-serif" font-size="26" font-weight="900" fill="#102027">Anamnese</text>
  <rect x="1114" y="144" width="104" height="38" rx="12" fill="#0f766e"/>
  <text x="1166" y="168" text-anchor="middle" font-family="Arial, sans-serif" font-size="13" font-weight="850" fill="#fff">Copiar tudo</text>

  <rect x="604" y="232" width="588" height="76" rx="14" fill="#f7f9fc" stroke="#e0e7ef"/>
  <text x="626" y="259" font-family="Arial, sans-serif" font-size="13" font-weight="850" fill="#344054">Controles</text>
  <rect x="626" y="274" width="92" height="24" rx="8" fill="#fff" stroke="#cbd5e1"/>
  <text x="672" y="291" text-anchor="middle" font-family="Arial, sans-serif" font-size="11" font-weight="800" fill="#344054">Masculino</text>
  <rect x="726" y="274" width="84" height="24" rx="8" fill="#fff" stroke="#cbd5e1"/>
  <text x="768" y="291" text-anchor="middle" font-family="Arial, sans-serif" font-size="11" font-weight="800" fill="#344054">Feminino</text>

  <rect x="604" y="332" width="588" height="388" rx="14" fill="#fff" stroke="#dce4ef"/>
  <text x="626" y="362" font-family="Arial, sans-serif" font-size="13" font-weight="850" fill="#344054">Template</text>
  <line x1="626" y1="382" x2="1168" y2="382" stroke="#eef2f6"/>
  <text x="626" y="420" font-family="Consolas, monospace" font-size="14" fill="#475467">--&gt; HMA :</text>
  <text x="626" y="452" font-family="Consolas, monospace" font-size="14" fill="#475467">--&gt; AP :</text>
  <text x="626" y="484" font-family="Consolas, monospace" font-size="14" fill="#475467">--&gt; Ao exame físico :</text>
  <text x="626" y="516" font-family="Consolas, monospace" font-size="14" fill="#475467">BEG, corado, hidratado...</text>
  <text x="626" y="548" font-family="Consolas, monospace" font-size="14" fill="#475467">--&gt; Conduta :</text>

  <rect x="604" y="736" width="588" height="28" rx="14" fill="#eef7f5" stroke="#b8ded5"/>
  <text x="898" y="755" text-anchor="middle" font-family="Arial, sans-serif" font-size="12" font-weight="850" fill="#0f766e">Mockup com duas laterais separadas: ações rápidas + receitas</text>
</svg>
