<svg xmlns="http://www.w3.org/2000/svg" width="1280" height="820" viewBox="0 0 1280 820">
  <defs>
    <linearGradient id="bg" x1="0" x2="1" y1="0" y2="1">
      <stop offset="0" stop-color="#f6f8fb"/>
      <stop offset="1" stop-color="#edf4f2"/>
    </linearGradient>
    <filter id="shadow" x="-20%" y="-20%" width="140%" height="140%">
      <feDropShadow dx="0" dy="16" stdDeviation="20" flood-color="#0f172a" flood-opacity=".12"/>
    </filter>
  </defs>

  <rect width="1280" height="820" fill="url(#bg)"/>

  <rect x="32" y="26" width="1216" height="72" rx="18" fill="#ffffff" stroke="#e0e7ef"/>
  <circle cx="72" cy="62" r="22" fill="#0f766e"/>
  <text x="72" y="69" text-anchor="middle" font-family="Inter, Arial, sans-serif" font-size="22" font-weight="800" fill="#fff">G</text>
  <text x="108" y="56" font-family="Inter, Arial, sans-serif" font-size="18" font-weight="850" fill="#102027">GustavoPlantão</text>
  <text x="108" y="78" font-family="Inter, Arial, sans-serif" font-size="12" font-weight="600" fill="#667085">Protocolos, receitas e textos clínicos</text>
  <rect x="1102" y="45" width="108" height="34" rx="17" fill="#eef7f5" stroke="#cce7df"/>
  <text x="1156" y="67" text-anchor="middle" font-family="Inter, Arial, sans-serif" font-size="12" font-weight="800" fill="#0f766e">App portátil</text>

  <g filter="url(#shadow)">
    <rect x="32" y="122" width="312" height="662" rx="18" fill="#ffffff" stroke="#dfe7f0"/>
  </g>

  <rect x="54" y="144" width="268" height="44" rx="13" fill="#f7f9fc" stroke="#d7e0ea"/>
  <text x="74" y="171" font-family="Inter, Arial, sans-serif" font-size="14" fill="#8a97a8">Buscar tópico, sintoma ou categoria</text>

  <rect x="54" y="206" width="268" height="46" rx="14" fill="#eef7f5" stroke="#b8ded5"/>
  <rect x="58" y="210" width="128" height="38" rx="11" fill="#0f766e"/>
  <text x="122" y="234" text-anchor="middle" font-family="Inter, Arial, sans-serif" font-size="13" font-weight="850" fill="#ffffff">AÇÕES RÁPIDAS</text>
  <text x="254" y="234" text-anchor="middle" font-family="Inter, Arial, sans-serif" font-size="13" font-weight="850" fill="#0f766e">RECEITAS</text>

  <text x="54" y="282" font-family="Inter, Arial, sans-serif" font-size="11" font-weight="900" fill="#667085">AÇÕES RÁPIDAS</text>
  <g font-family="Inter, Arial, sans-serif">
    <rect x="54" y="298" width="268" height="58" rx="13" fill="#e8f5f2" stroke="#b8ded5"/>
    <text x="72" y="321" font-size="14" font-weight="850" fill="#102027">Anamnese</text>
    <text x="72" y="340" font-size="11" font-weight="650" fill="#667085">Estrutura Clínica</text>

    <rect x="54" y="366" width="268" height="58" rx="13" fill="#ffffff" stroke="#e1e8f0"/>
    <text x="72" y="389" font-size="14" font-weight="850" fill="#102027">Reavaliação</text>
    <text x="72" y="408" font-size="11" font-weight="650" fill="#667085">Alta e exames</text>

    <rect x="54" y="434" width="268" height="58" rx="13" fill="#ffffff" stroke="#e1e8f0"/>
    <text x="72" y="457" font-size="14" font-weight="850" fill="#102027">Receita livre</text>
    <text x="72" y="476" font-size="11" font-weight="650" fill="#667085">Texto rápido</text>

    <rect x="54" y="502" width="268" height="58" rx="13" fill="#ffffff" stroke="#e1e8f0"/>
    <text x="72" y="525" font-size="14" font-weight="850" fill="#102027">Encaminhamento</text>
    <text x="72" y="544" font-size="11" font-weight="650" fill="#667085">Especialidades</text>
  </g>

  <rect x="54" y="690" width="268" height="58" rx="13" fill="#fbfcfe" stroke="#e1e8f0"/>
  <text x="72" y="714" font-family="Inter, Arial, sans-serif" font-size="12" font-weight="800" fill="#667085">Ao clicar em RECEITAS</text>
  <text x="72" y="733" font-family="Inter, Arial, sans-serif" font-size="11" fill="#7b8797">a mesma lateral troca para lista de receitas.</text>

  <g filter="url(#shadow)">
    <rect x="372" y="122" width="876" height="662" rx="18" fill="#ffffff" stroke="#dfe7f0"/>
  </g>
  <rect x="372" y="122" width="876" height="82" rx="18" fill="#ffffff"/>
  <line x1="372" y1="204" x2="1248" y2="204" stroke="#eef2f6"/>
  <text x="402" y="158" font-family="Inter, Arial, sans-serif" font-size="12" font-weight="800" fill="#667085">Estrutura Clínica</text>
  <text x="402" y="184" font-family="Inter, Arial, sans-serif" font-size="25" font-weight="900" fill="#102027">Anamnese</text>
  <rect x="1110" y="146" width="102" height="38" rx="12" fill="#0f766e"/>
  <text x="1161" y="170" text-anchor="middle" font-family="Inter, Arial, sans-serif" font-size="13" font-weight="850" fill="#ffffff">Copiar tudo</text>

  <rect x="402" y="232" width="816" height="76" rx="14" fill="#f7f9fc" stroke="#e0e7ef"/>
  <text x="424" y="259" font-family="Inter, Arial, sans-serif" font-size="13" font-weight="850" fill="#344054">Controles</text>
  <rect x="424" y="274" width="92" height="24" rx="8" fill="#ffffff" stroke="#cbd5e1"/>
  <text x="470" y="291" text-anchor="middle" font-family="Inter, Arial, sans-serif" font-size="11" font-weight="800" fill="#344054">Masculino</text>
  <rect x="524" y="274" width="84" height="24" rx="8" fill="#ffffff" stroke="#cbd5e1"/>
  <text x="566" y="291" text-anchor="middle" font-family="Inter, Arial, sans-serif" font-size="11" font-weight="800" fill="#344054">Feminino</text>

  <rect x="402" y="330" width="816" height="390" rx="14" fill="#ffffff" stroke="#dce4ef"/>
  <text x="424" y="360" font-family="Inter, Arial, sans-serif" font-size="13" font-weight="850" fill="#344054">Template</text>
  <line x1="424" y1="382" x2="1192" y2="382" stroke="#eef2f6"/>
  <text x="424" y="420" font-family="Consolas, monospace" font-size="14" fill="#475467">--&gt; HMA :</text>
  <text x="424" y="452" font-family="Consolas, monospace" font-size="14" fill="#475467">--&gt; AP :</text>
  <text x="424" y="484" font-family="Consolas, monospace" font-size="14" fill="#475467">--&gt; Ao exame físico :</text>
  <text x="424" y="516" font-family="Consolas, monospace" font-size="14" fill="#475467">BEG, corado, hidratado...</text>
  <text x="424" y="548" font-family="Consolas, monospace" font-size="14" fill="#475467">--&gt; Conduta :</text>

  <rect x="940" y="728" width="278" height="36" rx="18" fill="#eef7f5" stroke="#b8ded5"/>
  <text x="1079" y="751" text-anchor="middle" font-family="Inter, Arial, sans-serif" font-size="12" font-weight="850" fill="#0f766e">Mockup: abas laterais, app real intacto</text>
</svg>
